<?xml version="1.0" encoding="utf-8"?>
<!-- Generator: Adobe Illustrator 16.0.0, SVG Export Plug-In . SVG Version: 6.00 Build 0)  -->
<!DOCTYPE svg PUBLIC "-//W3C//DTD SVG 1.1//EN" "http://www.w3.org/Graphics/SVG/1.1/DTD/svg11.dtd">
<svg version="1.1" id="Layer_1" xmlns="http://www.w3.org/2000/svg" xmlns:xlink="http://www.w3.org/1999/xlink" x="0px" y="0px"
	 width="272.807px" height="251.175px" viewBox="0 0 272.807 251.175" enable-background="new 0 0 272.807 251.175"
	 xml:space="preserve">
<path fill="#FFFFFF" d="M272.807,61.033l-35.154-11.101l0.397-3.457l0.24-2.094l-28.618-3.285L79.529,0l-7.971,25.242l-34.631-3.975
	l-6.303,54.906L0,80.317l23.123,170.858l195.47-26.453l2.295,0.725l0.342-1.082l2.748-0.372l-0.789-5.831L272.807,61.033z
	 M212.77,215.457l-3.102,0.42l-3.561,0.482l-4.9,0.663l-4.898,0.663L31.659,239.968l-6.29-46.48l-0.292-2.154l-0.292-2.155
	l-0.212-1.566l-0.517-3.821l-0.835-6.168l-1.147-8.48l-1.147-8.48l-9.719-71.809l18.245-2.469l2.154-0.292l2.155-0.291l1.566-0.212
	l2.155-0.292l2.155-0.292l13.63-1.845l2.309-0.312l2.309-0.312l1.679-0.227l2.309-0.312l2.309-0.312l128.137-17.342l18.208,134.545
	l1.093,8.075l0.292,2.154l0.212,1.567l0.219,1.617l0.073,0.537l0.239,1.771l0.052,0.383L212.77,215.457z M68.503,34.918l2.132,0.245
	l2.133,0.245l1.551,0.178l2.132,0.245l2.133,0.245l129.001,14.809l10.995,1.262l8.677,0.996l-0.193,1.683l-0.244,2.132
	l-11.679,101.74L200.854,53.134L67.498,71.182l-2.309,0.312l-2.309,0.312l-1.679,0.228l-2.309,0.312l-2.309,0.312l-15.774,2.135
	l4.878-42.495L68.503,34.918z M157.694,35.129l-76.055-8.73L86.029,12.5L157.694,35.129z M236.496,60.013l23.811,7.52
	L221.54,190.298L236.496,60.013z"/>
</svg>
