<?xml version="1.0" encoding="utf-8"?>
<!-- Generator: Adobe Illustrator 16.0.0, SVG Export Plug-In . SVG Version: 6.00 Build 0)  -->
<!DOCTYPE svg PUBLIC "-//W3C//DTD SVG 1.1//EN" "http://www.w3.org/Graphics/SVG/1.1/DTD/svg11.dtd">
<svg version="1.1" id="Layer_1" xmlns="http://www.w3.org/2000/svg" xmlns:xlink="http://www.w3.org/1999/xlink" x="0px" y="0px"
	 width="1530.438px" height="568.888px" viewBox="0 0 1530.438 568.888" enable-background="new 0 0 1530.438 568.888"
	 xml:space="preserve">
<polygon fill-rule="evenodd" clip-rule="evenodd" fill="#FFFFFF" points="394.747,381.165 305.153,329.229 305.153,225.387 
	394.747,173.451 484.34,225.387 484.34,329.229 "/>
<polygon fill-rule="evenodd" clip-rule="evenodd" fill="#FFFFFF" points="291.225,207.7 201.633,155.778 201.633,51.921 291.225,0 
	380.819,51.921 380.819,155.778 "/>
<polygon fill-rule="evenodd" clip-rule="evenodd" fill="#FFFFFF" points="89.593,553.94 0,502.021 0,398.162 89.593,346.242 
	179.186,398.162 179.186,502.021 "/>
<polygon fill-rule="evenodd" clip-rule="evenodd" fill="#FFFFFF" points="596.019,381.503 506.424,329.565 506.424,225.725 
	596.019,173.788 685.61,225.725 685.61,329.565 "/>
<polygon fill-rule="evenodd" clip-rule="evenodd" fill="#FFFFFF" points="290.714,553.94 201.123,502.021 201.123,398.162 
	290.714,346.242 380.309,398.162 380.309,502.021 "/>
<g>
	<path fill="#535353" d="M429.508,515.695v-22.797h15.198v-83.588h-15.198v-22.797h53.192v22.797h-15.198v30.396h53.192v-30.396
		h-15.198v-22.797h53.192v22.797h-15.198v83.588h15.198v22.797h-53.192v-22.797h15.198v-30.396h-53.192v30.396h15.198v22.797
		H429.508z"/>
	<path fill="#535353" d="M584.222,515.695l-15.198-15.198v-68.39l15.198-15.198h60.792l15.198,15.198v68.39l-15.198,15.198H584.222z
		 M629.816,492.898l7.599-7.599v-37.995l-7.599-7.599H599.42l-7.599,7.599V485.3l7.599,7.599H629.816z"/>
	<path fill="#535353" d="M670.546,515.695v-22.797h15.198v-53.192h-15.198v-22.797h37.995v22.797l22.797-22.797h30.396
		l15.198,15.198v60.791h15.198v22.797h-37.995v-68.391l-7.599-7.599h-7.599l-30.396,30.396v22.797h15.198v22.797H670.546z"/>
	<path fill="#535353" d="M817.661,515.695l-15.198-15.198v-68.39l15.198-15.198h60.791l15.197,15.198v30.396l-15.197,15.198H825.26
		v7.599l7.599,7.599h56.992v22.797H817.661z M870.854,454.904v-7.6l-7.6-7.599h-30.396l-7.599,7.599v7.6H870.854z"/>
	<path fill="#535353" d="M919.183,568.888v-22.797h60.791l7.599-7.599v-22.797H934.38l-15.197-15.198v-60.791h-15.198v-22.797
		h37.994V485.3l7.6,7.599h37.994v-75.989h37.995v22.797h-15.198v106.385l-22.797,22.797H919.183z"/>
	<path fill="#535353" d="M1051.1,515.695l-15.198-15.198v-98.785l15.198-15.198h75.988v37.995h-22.796v-15.198h-37.995l-7.599,7.599
		V485.3l7.599,7.599h37.995v-15.197h22.796v37.994H1051.1z"/>
	<path fill="#535353" d="M1152.621,515.695l-15.198-15.198v-68.39l15.198-15.198h60.791l15.197,15.198v68.39l-15.197,15.198
		H1152.621z M1198.214,492.898l7.6-7.599v-37.995l-7.6-7.599h-30.396l-7.599,7.599V485.3l7.599,7.599H1198.214z"/>
	<path fill="#535353" d="M1238.944,515.695v-22.797h15.198v-53.192h-15.198v-22.797h37.994v22.797l22.797-22.797h30.396l7.6,7.6
		v15.197l22.797-22.797h30.396l7.599,7.6v68.39h15.198v22.797h-37.995v-75.989h-7.599l-30.396,30.396v22.797h15.197v22.797h-37.994
		v-75.989h-7.599l-30.396,30.396v22.797h15.198v22.797H1238.944z"/>
	<path fill="#535353" d="M1424.054,515.695v-22.797h15.198V386.514h-15.198v-22.797h37.994v53.192h53.192l15.198,15.198v68.39
		l-15.198,15.198H1424.054z M1500.043,492.898l7.599-7.599v-37.995l-7.599-7.599h-37.995v53.192H1500.043z"/>
</g>
</svg>
